<svg width="148" height="40" viewBox="0 0 148 40" fill="none" xmlns="http://www.w3.org/2000/svg">
<path d="M5.664 28.8703C3.664 28.8703 2.112 28.0463 1.008 26.3983V25.1023C1.44 26.0623 2.064 26.8143 2.88 27.3583C3.712 27.9023 4.704 28.1743 5.856 28.1743C6.656 28.1743 7.392 27.9983 8.064 27.6463C8.752 27.2943 9.296 26.7983 9.696 26.1583C10.096 25.5183 10.296 24.7823 10.296 23.9503C10.296 23.1983 10.168 22.5503 9.912 22.0063C9.656 21.4623 9.232 20.9423 8.64 20.4463C8.048 19.9343 7.192 19.3343 6.072 18.6463L5.304 18.1663C4.6 17.7343 4.032 17.3503 3.6 17.0143C3.168 16.6783 2.792 16.2863 2.472 15.8383C2.056 15.2143 1.848 14.4943 1.848 13.6783C1.848 12.5903 2.2 11.7423 2.904 11.1343C3.608 10.5263 4.504 10.2223 5.592 10.2223C7.064 10.2223 8.232 10.7663 9.096 11.8543V13.0783C8.728 12.4063 8.224 11.8783 7.584 11.4943C6.944 11.1103 6.24 10.9183 5.472 10.9183C4.672 10.9183 4 11.1663 3.456 11.6623C2.912 12.1583 2.64 12.8223 2.64 13.6543C2.64 14.4703 2.888 15.1743 3.384 15.7663C3.896 16.3423 4.752 16.9743 5.952 17.6623C7.424 18.5263 8.568 19.3103 9.384 20.0143C9.96 20.5423 10.376 21.1263 10.632 21.7663C10.904 22.4063 11.04 23.1183 11.04 23.9023C11.04 24.8943 10.808 25.7663 10.344 26.5183C9.88 27.2703 9.24 27.8543 8.424 28.2703C7.608 28.6703 6.688 28.8703 5.664 28.8703ZM13.5589 17.7343H14.3269V20.3743C14.7589 19.5103 15.4309 18.8143 16.3429 18.2863C17.2549 17.7423 18.2149 17.4703 19.2229 17.4703C20.2629 17.4703 21.2149 17.7263 22.0789 18.2383C22.9589 18.7503 23.6549 19.4383 24.1669 20.3023C24.6789 21.1663 24.9349 22.1103 24.9349 23.1343C24.9349 24.1583 24.6789 25.1023 24.1669 25.9663C23.6549 26.8303 22.9589 27.5183 22.0789 28.0303C21.2149 28.5423 20.2629 28.7983 19.2229 28.7983C18.2469 28.7983 17.3029 28.5343 16.3909 28.0063C15.4949 27.4783 14.8069 26.7823 14.3269 25.9183V33.3343H13.5589V17.7343ZM19.2709 28.1263C20.1509 28.1263 20.9669 27.9023 21.7189 27.4543C22.4709 26.9903 23.0629 26.3823 23.4949 25.6303C23.9429 24.8623 24.1669 24.0303 24.1669 23.1343C24.1669 22.2543 23.9429 21.4303 23.4949 20.6623C23.0469 19.8943 22.4469 19.2863 21.6949 18.8383C20.9429 18.3743 20.1269 18.1423 19.2469 18.1423C18.3669 18.1423 17.5429 18.3743 16.7749 18.8383C16.0229 19.3023 15.4149 19.9183 14.9509 20.6863C14.5029 21.4543 14.2789 22.2783 14.2789 23.1583C14.2789 24.0383 14.5029 24.8623 14.9509 25.6303C15.4149 26.3823 16.0309 26.9903 16.7989 27.4543C17.5669 27.9023 18.3909 28.1263 19.2709 28.1263ZM32.4281 28.7983C31.4041 28.7983 30.4521 28.5423 29.5721 28.0303C28.6921 27.5183 27.9961 26.8303 27.4841 25.9663C26.9721 25.0863 26.7161 24.1423 26.7161 23.1343C26.7161 22.1263 26.9721 21.1903 27.4841 20.3263C27.9961 19.4463 28.6921 18.7503 29.5721 18.2383C30.4521 17.7263 31.4041 17.4703 32.4281 17.4703C33.4681 17.4703 34.4521 17.7503 35.3801 18.3103C36.3081 18.8543 36.9561 19.5663 37.3241 20.4463V17.7343H38.0921V28.5343H37.3241V25.8463C36.8921 26.7423 36.2201 27.4623 35.3081 28.0063C34.4121 28.5343 33.4521 28.7983 32.4281 28.7983ZM32.4761 28.1263C33.3561 28.1263 34.1721 27.9023 34.9241 27.4543C35.6761 26.9903 36.2681 26.3823 36.7001 25.6303C37.1481 24.8623 37.3721 24.0303 37.3721 23.1343C37.3721 22.2543 37.1481 21.4303 36.7001 20.6623C36.2521 19.8943 35.6521 19.2863 34.9001 18.8383C34.1481 18.3743 33.3321 18.1423 32.4521 18.1423C31.5721 18.1423 30.7481 18.3743 29.9801 18.8383C29.2281 19.3023 28.6201 19.9183 28.1561 20.6863C27.7081 21.4543 27.4841 22.2783 27.4841 23.1583C27.4841 24.0383 27.7081 24.8623 28.1561 25.6303C28.6201 26.3823 29.2361 26.9903 30.0041 27.4543C30.7721 27.9023 31.5961 28.1263 32.4761 28.1263ZM44.9854 28.6783C43.8014 28.6783 42.8174 28.3183 42.0334 27.5983C41.2654 26.8783 40.8814 25.8863 40.8814 24.6223V13.3903H41.6494V17.7343H44.9614V18.4063H41.6494V24.6223C41.6494 25.6783 41.9614 26.5103 42.5854 27.1183C43.2254 27.7103 44.0254 28.0063 44.9854 28.0063V28.6783ZM47.9402 15.2623C47.7162 15.2623 47.5162 15.1823 47.3402 15.0223C47.1802 14.8623 47.1002 14.6623 47.1002 14.4223C47.1002 14.1983 47.1802 14.0063 47.3402 13.8463C47.5162 13.6863 47.7162 13.6063 47.9402 13.6063C48.1642 13.6063 48.3562 13.6863 48.5162 13.8463C48.6922 14.0063 48.7802 14.1983 48.7802 14.4223C48.7802 14.6623 48.6922 14.8623 48.5162 15.0223C48.3562 15.1823 48.1642 15.2623 47.9402 15.2623ZM47.5562 17.7343H48.3242V28.5343H47.5562V17.7343ZM56.9906 28.7983C55.9666 28.7983 55.0146 28.5423 54.1346 28.0303C53.2546 27.5183 52.5586 26.8303 52.0466 25.9663C51.5346 25.0863 51.2786 24.1423 51.2786 23.1343C51.2786 22.1263 51.5346 21.1903 52.0466 20.3263C52.5586 19.4463 53.2546 18.7503 54.1346 18.2383C55.0146 17.7263 55.9666 17.4703 56.9906 17.4703C58.0306 17.4703 59.0146 17.7503 59.9426 18.3103C60.8706 18.8543 61.5186 19.5663 61.8866 20.4463V17.7343H62.6546V28.5343H61.8866V25.8463C61.4546 26.7423 60.7826 27.4623 59.8706 28.0063C58.9746 28.5343 58.0146 28.7983 56.9906 28.7983ZM57.0386 28.1263C57.9186 28.1263 58.7346 27.9023 59.4866 27.4543C60.2386 26.9903 60.8306 26.3823 61.2626 25.6303C61.7106 24.8623 61.9346 24.0303 61.9346 23.1343C61.9346 22.2543 61.7106 21.4303 61.2626 20.6623C60.8146 19.8943 60.2146 19.2863 59.4626 18.8383C58.7106 18.3743 57.8946 18.1423 57.0146 18.1423C56.1346 18.1423 55.3106 18.3743 54.5426 18.8383C53.7906 19.3023 53.1826 19.9183 52.7186 20.6863C52.2706 21.4543 52.0466 22.2783 52.0466 23.1583C52.0466 24.0383 52.2706 24.8623 52.7186 25.6303C53.1826 26.3823 53.7986 26.9903 54.5666 27.4543C55.3346 27.9023 56.1586 28.1263 57.0386 28.1263ZM69.7879 28.7503C69.0359 28.7503 68.3479 28.5823 67.7239 28.2463C67.0999 27.8943 66.6039 27.4063 66.2359 26.7823C65.8679 26.1583 65.6839 25.4623 65.6839 24.6943V10.5343H66.4519V24.6943C66.4519 25.3343 66.5959 25.9103 66.8839 26.4223C67.1879 26.9343 67.5959 27.3423 68.1079 27.6463C68.6199 27.9343 69.1799 28.0783 69.7879 28.0783V28.7503ZM76.4218 28.8703C74.4218 28.8703 72.8698 28.0463 71.7658 26.3983V25.1023C72.1978 26.0623 72.8218 26.8143 73.6378 27.3583C74.4698 27.9023 75.4618 28.1743 76.6138 28.1743C77.4138 28.1743 78.1498 27.9983 78.8218 27.6463C79.5098 27.2943 80.0538 26.7983 80.4538 26.1583C80.8538 25.5183 81.0538 24.7823 81.0538 23.9503C81.0538 23.1983 80.9258 22.5503 80.6698 22.0063C80.4138 21.4623 79.9898 20.9423 79.3978 20.4463C78.8058 19.9343 77.9498 19.3343 76.8298 18.6463L76.0618 18.1663C75.3578 17.7343 74.7898 17.3503 74.3578 17.0143C73.9258 16.6783 73.5498 16.2863 73.2298 15.8383C72.8138 15.2143 72.6058 14.4943 72.6058 13.6783C72.6058 12.5903 72.9578 11.7423 73.6618 11.1343C74.3658 10.5263 75.2618 10.2223 76.3498 10.2223C77.8218 10.2223 78.9898 10.7663 79.8538 11.8543V13.0783C79.4858 12.4063 78.9818 11.8783 78.3418 11.4943C77.7018 11.1103 76.9978 10.9183 76.2298 10.9183C75.4298 10.9183 74.7578 11.1663 74.2138 11.6623C73.6698 12.1583 73.3978 12.8223 73.3978 13.6543C73.3978 14.4703 73.6458 15.1743 74.1418 15.7663C74.6538 16.3423 75.5098 16.9743 76.7098 17.6623C78.1818 18.5263 79.3258 19.3103 80.1418 20.0143C80.7178 20.5423 81.1338 21.1263 81.3898 21.7663C81.6618 22.4063 81.7978 23.1183 81.7978 23.9023C81.7978 24.8943 81.5658 25.7663 81.1018 26.5183C80.6378 27.2703 79.9978 27.8543 79.1818 28.2703C78.3658 28.6703 77.4458 28.8703 76.4218 28.8703ZM89.5727 28.1503C90.4047 28.1503 91.1967 27.9343 91.9487 27.5023C92.7007 27.0703 93.3247 26.4783 93.8207 25.7263V26.9503C93.2287 27.6063 92.5807 28.0863 91.8767 28.3903C91.1727 28.6783 90.3727 28.8223 89.4767 28.8223C88.4847 28.8223 87.5487 28.5583 86.6687 28.0303C85.8047 27.5023 85.1087 26.7983 84.5807 25.9183C84.0687 25.0383 83.8127 24.1023 83.8127 23.1103C83.8127 22.0383 84.0687 21.0783 84.5807 20.2303C85.0927 19.3663 85.7887 18.6943 86.6687 18.2143C87.5647 17.7343 88.5567 17.4943 89.6447 17.4943C91.3087 17.4943 92.7247 18.1503 93.8927 19.4623L86.3567 26.9023C86.8847 27.3343 87.3967 27.6543 87.8927 27.8623C88.3887 28.0543 88.9487 28.1503 89.5727 28.1503ZM84.5807 23.0383C84.5807 24.3663 85.0207 25.5023 85.9007 26.4463L92.9327 19.4623C92.4047 18.9983 91.8927 18.6703 91.3967 18.4783C90.9007 18.2703 90.3087 18.1663 89.6207 18.1663C88.6447 18.1663 87.7727 18.3823 87.0047 18.8143C86.2527 19.2303 85.6607 19.8063 85.2287 20.5423C84.7967 21.2783 84.5807 22.1103 84.5807 23.0383ZM96.2933 17.7343H97.0613V20.1343C97.4133 19.3343 98.0133 18.6943 98.8613 18.2143C99.7093 17.7183 100.645 17.4703 101.669 17.4703C102.997 17.4703 104.045 17.8943 104.813 18.7423C105.597 19.5743 105.989 20.7423 105.989 22.2463V28.5343H105.221V22.2463C105.221 20.9503 104.901 19.9423 104.261 19.2223C103.637 18.5023 102.757 18.1423 101.621 18.1423C100.789 18.1423 100.021 18.3343 99.3173 18.7183C98.6293 19.0863 98.0773 19.5983 97.6613 20.2543C97.2613 20.9103 97.0613 21.6543 97.0613 22.4863V28.5343H96.2933V17.7343ZM111.636 28.7983C110.868 28.7983 110.188 28.6703 109.596 28.4143C109.004 28.1423 108.58 27.7983 108.324 27.3823V26.1103C108.628 26.7983 109.044 27.3103 109.572 27.6463C110.1 27.9663 110.772 28.1263 111.588 28.1263C112.372 28.1263 113.004 27.8863 113.484 27.4063C113.964 26.9103 114.204 26.2783 114.204 25.5103C114.204 24.8543 114.068 24.3503 113.796 23.9983C113.524 23.6303 113.084 23.2623 112.476 22.8943L111.564 22.3663C110.908 21.9663 110.412 21.6543 110.076 21.4303C109.756 21.1903 109.5 20.9263 109.308 20.6383C109.116 20.3343 109.02 19.9823 109.02 19.5823C109.02 18.9423 109.244 18.4303 109.692 18.0463C110.14 17.6623 110.724 17.4703 111.444 17.4703C112.324 17.4703 113.06 17.6703 113.652 18.0703V19.1263C113.156 18.4703 112.444 18.1423 111.516 18.1423C111.004 18.1423 110.588 18.2703 110.268 18.5263C109.948 18.7823 109.788 19.1103 109.788 19.5103C109.788 19.8623 109.884 20.1743 110.076 20.4463C110.268 20.7023 110.532 20.9423 110.868 21.1663C111.22 21.3903 111.796 21.7263 112.596 22.1743C113.412 22.6383 114.012 23.1183 114.396 23.6143C114.78 24.0943 114.972 24.7263 114.972 25.5103C114.972 26.5023 114.644 27.3023 113.988 27.9103C113.348 28.5023 112.564 28.7983 111.636 28.7983ZM122.62 28.1503C123.452 28.1503 124.244 27.9343 124.996 27.5023C125.748 27.0703 126.372 26.4783 126.868 25.7263V26.9503C126.276 27.6063 125.628 28.0863 124.924 28.3903C124.22 28.6783 123.42 28.8223 122.524 28.8223C121.532 28.8223 120.596 28.5583 119.716 28.0303C118.852 27.5023 118.156 26.7983 117.628 25.9183C117.116 25.0383 116.86 24.1023 116.86 23.1103C116.86 22.0383 117.116 21.0783 117.628 20.2303C118.14 19.3663 118.836 18.6943 119.716 18.2143C120.612 17.7343 121.604 17.4943 122.692 17.4943C124.356 17.4943 125.772 18.1503 126.94 19.4623L119.404 26.9023C119.932 27.3343 120.444 27.6543 120.94 27.8623C121.436 28.0543 121.996 28.1503 122.62 28.1503ZM117.628 23.0383C117.628 24.3663 118.068 25.5023 118.948 26.4463L125.98 19.4623C125.452 18.9983 124.94 18.6703 124.444 18.4783C123.948 18.2703 123.356 18.1663 122.668 18.1663C121.692 18.1663 120.82 18.3823 120.052 18.8143C119.3 19.2303 118.708 19.8063 118.276 20.5423C117.844 21.2783 117.628 22.1103 117.628 23.0383Z" fill="black"/>
<mask id="mask0_526_5649" style="mask-type:alpha" maskUnits="userSpaceOnUse" x="127" y="0" width="21" height="21">
<path d="M147 1.87671L128.877 1.87671L128.877 20L147 20L147 1.87671Z" fill="#D9D9D9" stroke="#3BB3BD" stroke-width="2" stroke-linecap="round" stroke-linejoin="bevel"/>
</mask>
<g mask="url(#mask0_526_5649)">
<path d="M128.801 37.5902C138.473 37.5902 146.315 29.7489 146.315 20.0761C146.315 10.4033 138.473 2.56201 128.801 2.56201C119.128 2.56201 111.286 10.4033 111.286 20.0761C111.286 29.7489 119.128 37.5902 128.801 37.5902Z" stroke="#3BB3BD" stroke-width="2" stroke-linecap="round" stroke-linejoin="bevel"/>
<path d="M128.8 32.7965C135.826 32.7965 141.521 27.1013 141.521 20.076C141.521 13.0506 135.826 7.35547 128.8 7.35547C121.775 7.35547 116.08 13.0506 116.08 20.076C116.08 27.1013 121.775 32.7965 128.8 32.7965Z" stroke="#669CA0" stroke-width="2" stroke-linecap="round" stroke-linejoin="bevel"/>
<path d="M128.801 28.003C133.178 28.003 136.727 24.454 136.727 20.0761C136.727 15.6982 133.178 12.1492 128.801 12.1492C124.423 12.1492 120.874 15.6982 120.874 20.0761C120.874 24.454 124.423 28.003 128.801 28.003Z" stroke="#506E70" stroke-width="2" stroke-linecap="round" stroke-linejoin="bevel"/>
</g>
</svg>
