<svg width="56" height="56" viewBox="0 0 56 56" fill="none" xmlns="http://www.w3.org/2000/svg">
<rect width="56" height="56" rx="4" fill="#EFEFEF"/>
<path d="M16 16.1781C16 20.3555 19.4662 23.7419 23.7419 23.7419C23.7419 14.1556 16 16.1781 16 16.1781Z" fill="black"/>
<path d="M32.2581 16C36.5338 16 40 19.4662 40 23.7419H24.5161C24.5161 19.4662 27.9823 16 32.2581 16Z" fill="black"/>
<path d="M23.7419 40C19.4662 40 16 36.5338 16 32.2581C16 27.9823 19.4662 24.5161 23.7419 24.5161V40Z" fill="black"/>
<path d="M32.2581 32.2581C36.5338 32.2581 40 28.7919 40 24.5161H24.5161C24.5161 28.7919 27.9823 32.2581 32.2581 32.2581Z" fill="black"/>
</svg>
