<svg width="56" height="56" viewBox="0 0 56 56" fill="none" xmlns="http://www.w3.org/2000/svg">
<rect width="56" height="56" rx="4" fill="#EFEFEF"/>
<path d="M27.7 27.7C27.7 21.2383 22.4617 16 16 16V18.7C16 23.6706 20.0294 27.7 25 27.7H27.7Z" fill="black"/>
<path d="M28.3 27.7C28.3 21.2383 33.5383 16 40 16V18.7C40 23.6706 35.9706 27.7 31 27.7H28.3Z" fill="black"/>
<path d="M16 40C22.4617 40 27.7 34.7617 27.7 28.3H25C20.0294 28.3 16 32.3294 16 37.3V40Z" fill="black"/>
<path d="M28.3 28.3C28.3 34.7617 33.5383 40 40 40V37.3C40 32.3294 35.9706 28.3 31 28.3H28.3Z" fill="black"/>
</svg>
